<?xml version="1.0" encoding="utf-8"?>
<!-- Generator: Adobe Illustrator 16.0.0, SVG Export Plug-In . SVG Version: 6.00 Build 0)  -->
<!DOCTYPE svg PUBLIC "-//W3C//DTD SVG 1.1//EN" "http://www.w3.org/Graphics/SVG/1.1/DTD/svg11.dtd">
<svg version="1.1" id="Layer_1" xmlns="http://www.w3.org/2000/svg" xmlns:xlink="http://www.w3.org/1999/xlink" x="0px" y="0px"
	 width="278px" height="314.876px" viewBox="0 0 278 314.876" enable-background="new 0 0 278 314.876" xml:space="preserve">
<g>
	<path fill="none" stroke="#E91E63" stroke-width="16" stroke-miterlimit="10" d="M270,227.892c0,2.75-2.198,6.125-4.58,7.499
		l-122.215,70.455c-2.383,1.374-6.343,1.374-8.725,0L12.36,235.391C9.978,234.017,8,230.642,8,227.892V86.985
		c0-2.75,1.947-6.125,4.329-7.499L134.419,9.031c2.382-1.375,6.28-1.375,8.661,0l122.34,70.455c2.382,1.375,4.58,4.749,4.58,7.499
		V227.892z"/>
</g>
<g>
	<polygon fill="#4F4F4F" stroke="#4F4F4F" stroke-miterlimit="10" points="116.5,51.393 25.048,104.317 116.5,157.242 	"/>
	<line x1="116.587" y1="157.242" x2="117.06" y2="157.461"/>
	<line x1="117.154" y1="51.174" x2="116.587" y2="51.393"/>
	<polygon points="116.965,157.68 117.343,157.461 116.965,157.242 	"/>
	<polygon fill="#646D84" stroke="#646D84" stroke-miterlimit="10" points="116.5,157.242 25.5,104.317 25.5,210.604 116.5,157.68 	
		"/>
	<polygon fill="#828EA8" stroke="#828EA8" stroke-miterlimit="10" points="25.048,210.604 116.5,263.528 116.5,157.68 	"/>
</g>
<g>
	<linearGradient id="SVGID_1_" gradientUnits="userSpaceOnUse" x1="150.4365" y1="180.2773" x2="222.6249" y2="252.4658">
		<stop  offset="0" style="stop-color:#333333"/>
		<stop  offset="0.3763" style="stop-color:#4D4D4D"/>
		<stop  offset="1" style="stop-color:#666666"/>
	</linearGradient>
	<polygon fill="url(#SVGID_1_)" stroke="#4F4F4F" stroke-miterlimit="10" points="161.5,263.528 252.951,210.604 161.5,157.68 	"/>
	<polygon points="159.856,157.242 159.479,157.461 159.856,157.68 	"/>
	<polygon fill="#ED4B82" stroke="#ED4B82" stroke-miterlimit="10" points="161.5,157.242 161.5,51.393 160.3,51.174 68.061,104.317 
		160.506,157.461 	"/>
	<polygon fill="#A31545" stroke="#A31545" stroke-miterlimit="10" points="161.5,157.68 252.5,210.604 252.5,104.317 161.5,157.242 
			"/>
	<polygon fill="#E91E63" stroke="#E91E63" stroke-miterlimit="10" points="252.951,104.317 161.5,51.393 161.5,157.242 	"/>
</g>
<polygon fill="#A1B0D1" stroke="#A1B0D1" stroke-miterlimit="10" points="116.5,157.68 116.5,263.528 117.11,263.747 
	209.056,210.604 117.052,157.461 "/>
<g>
	<path fill="#E91E63" d="M146.67,133.216c0.131-0.033,0.33-2.31,0.33-5.06V80.377c0-2.75-0.219-5.027-0.375-5.06
		s-2.278,1.064-4.66,2.438l-41.666,24.014c-2.382,1.374-2.393,3.62-0.01,4.992l41.771,24.02
		C144.442,132.152,146.539,133.248,146.67,133.216z"/>
	<path fill="none" stroke="#E91E63" stroke-miterlimit="10" d="M146.42,133.216c0.131-0.033,0.08-2.31,0.08-5.06V80.377
		c0-2.75,0.031-5.027-0.125-5.06s-2.153,1.064-4.535,2.438l-41.604,24.014c-2.382,1.374-2.362,3.62,0.021,4.992l41.661,24.02
		C144.302,132.152,146.289,133.248,146.42,133.216z"/>
</g>
</svg>